<svg xmlns="http://www.w3.org/2000/svg" width="30" height="30" viewBox="0 0 30 30" fill="none">
    <path d="M19.0665 11.0333C20.7325 11.0333 22.0831 9.68273 22.0831 8.01667C22.0831 6.35061 20.7325 5 19.0665 5C17.4004 5 16.0498 6.35061 16.0498 8.01667C16.0498 9.68273 17.4004 11.0333 19.0665 11.0333Z" stroke="white" stroke-miterlimit="10" stroke-linecap="round" stroke-linejoin="round"/>
    <path d="M9.01667 20.1918C10.6827 20.1918 12.0333 18.8412 12.0333 17.1751C12.0333 15.5091 10.6827 14.1584 9.01667 14.1584C7.35061 14.1584 6 15.5091 6 17.1751C6 18.8412 7.35061 20.1918 9.01667 20.1918Z" stroke="white" stroke-miterlimit="10" stroke-linecap="round" stroke-linejoin="round"/>
    <path d="M21.8751 24.9999C23.5411 24.9999 24.8917 23.6493 24.8917 21.9832C24.8917 20.3172 23.5411 18.9666 21.8751 18.9666C20.209 18.9666 18.8584 20.3172 18.8584 21.9832C18.8584 23.6493 20.209 24.9999 21.8751 24.9999Z" stroke="white" stroke-miterlimit="10" stroke-linecap="round" stroke-linejoin="round"/>
    <path d="M16.742 9.94165L10.917 14.8333" stroke="white" stroke-miterlimit="10" stroke-linecap="round" stroke-linejoin="round"/>
    <path d="M11.7251 18.5083L19.0668 20.8666" stroke="white" stroke-miterlimit="10" stroke-linecap="round" stroke-linejoin="round"/>
</svg>
